<?xml version="1.0" encoding="UTF-8" standalone="no"?>
<svg width="401px" height="400px" viewBox="0 0 401 400" version="1.1" xmlns="http://www.w3.org/2000/svg" xmlns:xlink="http://www.w3.org/1999/xlink" xmlns:sketch="http://www.bohemiancoding.com/sketch/ns">
    <!-- Generator: Sketch 3.4.3 (16044) - http://www.bohemiancoding.com/sketch -->
    <title>chorizo</title>
    <desc>Created with Sketch.</desc>
    <defs></defs>
    <g id="Page-1" stroke="none" stroke-width="1" fill="none" fill-rule="evenodd" sketch:type="MSPage">
        <g id="Original-Assets" sketch:type="MSArtboardGroup" transform="translate(-1459.000000, -1878.000000)">
            <g id="Group" sketch:type="MSLayerGroup" transform="translate(229.000000, 198.000000)">
                <g id="Mascots" transform="translate(810.000000, 1680.000000)" sketch:type="MSShapeGroup">
                    <g id="Chorizo" transform="translate(420.500000, 0.000000)">
                        <g>
                            <g transform="translate(49.000000, 79.000000)">
                                <path d="M294.650306,0.705246914 C257.308622,-6.71296296 194.07352,29.3873457 194.07352,29.3873457 C194.07352,29.3873457 179.890306,19.757716 148.166439,19.757716 C35.2184388,19.757716 13.6054082,208.847222 13.6054082,208.847222 C13.6054082,208.847222 141.890694,303.114198 284.816816,208.847222 C284.816816,208.847222 281.423939,173.532407 268.014214,133.430556 C273.370092,123.108025 306.053888,57.6635802 300.75502,7.41975309 C300.403714,4.0941358 297.924541,1.35493827 294.650306,0.705246914" id="Fill-4" fill="#EF5137"></path>
                                <path d="M128.647378,21.7669753 C120.954082,23.3873457 113.763092,25.9598765 107.028184,29.3024691 C103.746245,27.4506173 42.8978673,-6.52777778 6.57466327,0.709876543 C3.31737755,1.35802469 0.84744898,4.08950617 0.497683673,7.39814815 C-4.51921429,54.8719136 24.3865,115.927469 32.1090714,131.225309 C17.7933469,172.229938 13.6054082,208.847222 13.6054082,208.847222 C13.6054082,208.847222 46.8747143,233.274691 98.3857449,244.822531 C98.5151735,244.651235 98.5336633,244.628086 98.6630918,244.455247 C23.371102,105.708333 121.873949,28.0756173 128.647378,21.7669753" id="Fill-5" fill="#CE3627"></path>
                                <path d="M88.9420816,49.6373457 C88.9420816,49.6373457 57.5679796,64.3009259 35.2569592,121.561728 C35.2569592,121.561728 -2.3589898,49.9783951 4.44987755,12.8024691 C5.16173469,8.91512346 8.63935714,6.14969136 12.5730612,6.43209877 C38.3416735,8.27932099 88.9420816,49.6373457 88.9420816,49.6373457" id="Fill-6" fill="#EBA5A2"></path>
                                <path d="M81.9698878,50.3364198 C81.9698878,50.3364198 49.8993367,23.1033951 26.1938776,34.9737654 C26.1938776,34.9737654 20.6161224,37.7669753 42.9271429,40.5601852 C42.9271429,40.5601852 28.9827551,43.3533951 28.9827551,48.9398148 C28.9827551,54.5262346 42.2291531,51.7330247 42.2291531,51.7330247 C42.2291531,51.7330247 33.1660714,53.8271605 34.5605102,58.7160494 C35.954949,63.6033951 44.3215816,64.3009259 50.5957857,62.2067901 C50.5957857,62.2067901 40.8347143,73.3796296 45.7160204,78.2669753 C50.5957857,83.1558642 76.3921327,50.3364198 81.9698878,50.3364198" id="Fill-7" fill="#EFCBC9"></path>
                                <path d="M212.309082,49.6373457 C212.309082,49.6373457 243.683184,64.3009259 265.992663,121.561728 C265.992663,121.561728 303.610153,49.9783951 296.799745,12.8024691 C296.087888,8.91512346 292.611806,6.14969136 288.676561,6.43209877 C262.90949,8.27932099 212.309082,49.6373457 212.309082,49.6373457" id="Fill-8" fill="#F3BDB8"></path>
                                <path d="M219.281276,50.3364198 C219.281276,50.3364198 251.351827,23.1033951 275.055745,34.9737654 C275.055745,34.9737654 280.635041,37.7669753 258.32402,40.5601852 C258.32402,40.5601852 272.268408,43.3533951 272.268408,48.9398148 C272.268408,54.5262346 259.020469,51.7330247 259.020469,51.7330247 C259.020469,51.7330247 268.085092,53.8271605 266.690653,58.7160494 C265.296214,63.6033951 256.929582,64.3009259 250.655378,62.2067901 C250.655378,62.2067901 260.414908,73.3796296 255.535143,78.2669753 C250.655378,83.1558642 224.85749,50.3364198 219.281276,50.3364198" id="Fill-9" fill="#F9D6D3"></path>
                                <path d="M70.9222347,148.095679 C70.9222347,137.29784 79.6632857,128.54321 90.4443776,128.54321 C101.225469,128.54321 109.96652,137.29784 109.96652,148.095679 C109.96652,158.893519 101.225469,167.648148 90.4443776,167.648148 C79.6632857,167.648148 70.9222347,158.893519 70.9222347,148.095679" id="Fill-10" fill="#465000"></path>
                                <path d="M82.0777449,148.095679 C82.0777449,143.467593 85.8234694,139.716049 90.4443776,139.716049 C95.0652857,139.716049 98.8110102,143.467593 98.8110102,148.095679 C98.8110102,152.723765 95.0652857,156.475309 90.4443776,156.475309 C85.8234694,156.475309 82.0777449,152.723765 82.0777449,148.095679" id="Fill-11" fill="#231F1F"></path>
                                <path d="M80.4182857,141.845679 C80.4182857,139.28858 82.4891429,137.216049 85.0407347,137.216049 C87.5938673,137.216049 89.6631837,139.28858 89.6631837,141.845679 C89.6631837,144.402778 87.5938673,146.475309 85.0407347,146.475309 C82.4891429,146.475309 80.4182857,144.402778 80.4182857,141.845679" id="Fill-12" fill="#FFFFFF"></path>
                                <path d="M191.105908,148.095679 C191.105908,137.29784 199.846959,128.54321 210.628051,128.54321 C221.409143,128.54321 230.150194,137.29784 230.150194,148.095679 C230.150194,158.893519 221.409143,167.648148 210.628051,167.648148 C199.846959,167.648148 191.105908,158.893519 191.105908,148.095679" id="Fill-13" fill="#465000"></path>
                                <path d="M202.261418,148.095679 C202.261418,143.467593 206.007143,139.716049 210.628051,139.716049 C215.248959,139.716049 218.994684,143.467593 218.994684,148.095679 C218.994684,152.723765 215.248959,156.475309 210.628051,156.475309 C206.007143,156.475309 202.261418,152.723765 202.261418,148.095679" id="Fill-14" fill="#231F1F"></path>
                                <path d="M200.601959,141.845679 C200.601959,139.28858 202.672816,137.216049 205.224408,137.216049 C207.777541,137.216049 209.846857,139.28858 209.846857,141.845679 C209.846857,144.402778 207.777541,146.475309 205.224408,146.475309 C202.672816,146.475309 200.601959,144.402778 200.601959,141.845679" id="Fill-15" fill="#FFFFFF"></path>
                                <path d="M176.320235,249.337963 C186.669898,241.290123 193.33701,228.719136 193.33701,214.580247 C193.33701,190.283951 173.673112,170.587963 149.4145,170.587963 C125.155888,170.587963 105.490449,190.283951 105.490449,214.580247 C105.490449,228.479938 111.934143,240.865741 121.984888,248.927469 C138.80752,251.013889 157.046163,251.484568 176.320235,249.337963" id="Fill-16" fill="#FFFFFF"></path>
                                <path d="M176.320235,249.337963 C186.669898,241.290123 193.33701,228.719136 193.33701,214.580247 C193.33701,190.283951 173.673112,170.587963 149.4145,170.587963 C125.155888,170.587963 105.490449,190.283951 105.490449,214.580247 C105.490449,228.479938 111.934143,240.865741 121.984888,248.927469 C138.80752,251.013889 157.046163,251.484568 176.320235,249.337963" id="Fill-17" fill="#FFFFFF"></path>
                                <path d="M120.183673,182.098765 C118.664429,183.425926 117.273071,184.75 115.975704,186.070988 C109.442643,193.75 105.490449,203.699074 105.490449,214.580247 C105.490449,228.479938 111.934143,240.865741 121.984888,248.927469 C132.433163,250.223765 143.426888,250.893519 154.875153,250.70216 C153.493041,250.006173 151.961469,249.262346 150.229592,248.45679 C107.086735,228.395062 120.183673,182.098765 120.183673,182.098765" id="Fill-18" fill="#E3E3E3"></path>
                                <path d="M148.613276,208.773148 C148.62252,213.489198 148.468439,218.646605 147.132551,222.33642 C146.468459,224.185185 145.551673,225.62963 144.309776,226.612654 C143.064796,227.589506 141.44848,228.20216 139.038643,228.209877 C136.604153,228.20679 134.901551,227.631173 133.622673,226.824074 C131.713602,225.62037 130.667388,223.768519 130.097286,222.134259 C129.813776,221.324074 129.658153,220.583333 129.574949,220.060185 C129.533347,219.79784 129.508694,219.591049 129.496367,219.455247 L129.484041,219.308642 L129.4825,219.280864 L129.151224,219.29784 L129.4825,219.285494 L129.4825,219.280864 L129.151224,219.29784 L129.4825,219.285494 C129.44398,218.33179 128.641214,217.589506 127.68899,217.62963 C126.736765,217.66821 125.997173,218.472222 126.035694,219.425926 C126.049561,219.572531 126.149714,222.436728 127.8215,225.484568 C128.661245,227.003086 129.921633,228.569444 131.776776,229.74537 C133.628837,230.92284 136.049459,231.669753 139.038643,231.666667 C142.05248,231.674383 144.560929,230.828704 146.449969,229.322531 C147.869061,228.199074 148.919898,226.75 149.691847,225.151235 C150.849,222.75 151.41602,220.001543 151.724184,217.182099 C152.027724,214.361111 152.061622,211.46142 152.063163,208.773148 C152.063163,207.817901 151.289673,207.044753 150.337449,207.044753 C149.385224,207.044753 148.613276,207.817901 148.613276,208.773148" id="Fill-19" fill="#231F1F"></path>
                                <path d="M148.494633,208.773148 C148.505418,213.558642 148.576296,218.984568 150.177204,223.501543 C150.983051,225.756173 152.212622,227.820988 154.106286,229.322531 C155.996867,230.828704 158.505316,231.674383 161.519153,231.666667 C164.508337,231.669753 166.928959,230.92284 168.77948,229.74537 C171.569898,227.973765 172.992071,225.359568 173.717796,223.273148 C174.446602,221.174383 174.514398,219.537037 174.522102,219.425926 C174.560622,218.472222 173.81949,217.66821 172.868806,217.62963 C171.916582,217.589506 171.113816,218.33179 171.073755,219.285494 L171.073755,219.287037 C171.073755,219.447531 170.879612,221.858025 169.597653,224.020062 C168.958214,225.106481 168.076867,226.131173 166.814939,226.899691 C165.548388,227.665123 163.878143,228.20679 161.519153,228.209877 C159.109316,228.20216 157.493,227.589506 156.24802,226.612654 C155.314286,225.871914 154.570071,224.882716 153.970694,223.645062 C153.072398,221.796296 152.540816,219.404321 152.263469,216.810185 C151.9815,214.216049 151.94452,211.429012 151.94452,208.773148 C151.94452,207.817901 151.172571,207.044753 150.220347,207.044753 C149.266582,207.044753 148.494633,207.817901 148.494633,208.773148" id="Fill-20" fill="#231F1F"></path>
                                <path d="M136.104929,191.493827 C132.878459,197.41821 145.593276,208.773148 150.337449,208.773148 C155.081622,208.773148 168.882714,196.24537 163.707112,191.493827 C158.53151,186.742284 138.6935,186.742284 136.104929,191.493827" id="Fill-21" fill="#F699A0"></path>
                            </g>
                        </g>
                    </g>
                </g>
            </g>
        </g>
    </g>
</svg>