<?xml version="1.0" encoding="UTF-8" standalone="no"?>
<svg width="400px" height="400px" viewBox="0 0 400 400" version="1.1" xmlns="http://www.w3.org/2000/svg" xmlns:xlink="http://www.w3.org/1999/xlink" xmlns:sketch="http://www.bohemiancoding.com/sketch/ns">
    <!-- Generator: Sketch 3.4.3 (16044) - http://www.bohemiancoding.com/sketch -->
    <title>taco</title>
    <desc>Created with Sketch.</desc>
    <defs></defs>
    <g id="Page-1" stroke="none" stroke-width="1" fill="none" fill-rule="evenodd" sketch:type="MSPage">
        <g id="Original-Assets" sketch:type="MSArtboardGroup" transform="translate(-1039.000000, -1878.000000)">
            <g id="Group" sketch:type="MSLayerGroup" transform="translate(229.000000, 198.000000)">
                <g id="Mascots" transform="translate(810.000000, 1680.000000)" sketch:type="MSShapeGroup">
                    <g id="Taco">
                        <g>
                            <g transform="translate(69.000000, 43.000000)">
                                <g id="Head" transform="translate(0.000000, 78.393665)">
                                    <path d="M134.090812,217.334777 C170.464817,217.334777 190.866015,210.531034 202.893719,204.898948 C205.168982,200.594566 202.893719,187.692565 202.893719,187.692565 L62.557589,183.849764 C62.557589,183.849764 58.8298346,189.152711 58.8298346,201.919647 C69.0235388,209.024336 99.5475238,217.334777 134.090812,217.334777" id="Shape" fill="#0079BF"></path>
                                    <path d="M134.981875,159.275773 C223.816947,159.275773 261.46418,171.622433 261.46418,171.622433 C261.667083,171.762088 260.675554,169.930841 260.675554,147.423478 C260.675554,115.083896 253.899013,101.261354 251.364376,89.1585977 C240.743855,38.4252394 193.126832,-0.548271041 132.506336,-0.548271041 C81.3697143,-0.548271041 37.7247168,27.2286 20.4287769,66.3456991 L20.3118947,66.2007991 C20.3118947,66.2007991 0.0965263158,108.960724 0.0965263158,171.587028 C18.4831479,156.855091 46.1487719,159.275773 134.981875,159.275773" id="Shape" fill="#81929C"></path>
                                    <path d="M118.938807,33.8035195 C108.538917,27.8704873 99.1161103,27.4180846 99.1161103,27.4180846 L117.749629,18.9706113 C117.749629,18.9706113 107.853383,15.2196027 97.9420351,21.9354882 C113.591118,2.42316244 131.840501,-0.517455204 132.329043,-0.546959729 C81.2653083,-0.478115837 37.702391,27.2758072 20.4294336,66.3430765 L20.3125514,66.1981765 C20.3125514,66.1981765 0.0971829574,108.960068 0.0971829574,171.587028 C8.11346366,165.160287 17.8987368,162.000024 33.7474386,160.47628 L131.872677,70.7707222 C131.872677,70.7694109 116.291885,43.6855683 118.938807,33.8035195" id="Shape" fill="#576D7A"></path>
                                    <path d="M14.3561554,169.930841 L9.6040401,181.719538 C9.6040401,181.719538 30.0525163,176.034999 44.0685313,181.719538 C55.4376241,186.332078 72.7493233,202.425813 131.872677,201.904567 C190.997343,201.387254 225.303584,182.474198 234.216837,181.715604 C243.12812,180.95242 250.30587,181.719538 250.30587,181.719538 L245.50582,171.581783 L261.46418,171.622433 C261.46418,171.622433 259.450261,160.628392 252.901574,139.612647 C246.685805,119.665621 227.462622,115.672019 217.373323,118.072376 C237.781088,70.7694109 198.484371,43.6836014 173.213519,43.6836014 C155.301649,43.6836014 139.104927,52.729033 131.872677,70.7700665 C122.481388,50.8151729 108.327479,43.9589769 90.4169223,43.9589769 C65.1480401,43.9589769 25.6471078,70.7700665 46.2531779,118.212031 C34.6838095,117.285589 21.0420802,121.631278 11.3861654,139.612647 C3.26679198,160.668387 0.0971829574,171.587028 0.0971829574,171.587028 L14.3561554,169.930841 L14.3561554,169.930841 Z" id="Shape" fill="#FFFFFF"></path>
                                    <path d="M261.324972,171.547689 C249.917138,156.9141 225.57609,154.074453 195.717283,161.935114 C170.778692,168.500199 176.660887,183.608483 132.985028,183.744204 C89.3111378,183.872712 90.617198,155.621146 44.6614787,155.62967 C30.3650777,155.634259 13.0106967,157.832019 0.202245614,170.593709 C0.133954887,171.227729 0.097839599,171.586372 0.097839599,171.586372 L14.356812,169.930841 L9.60469674,181.719538 C9.60469674,181.719538 30.0531729,176.034999 44.069188,181.719538 C55.4382807,186.332078 72.7499799,202.425813 131.873333,201.904567 C190.998,201.387254 225.304241,182.474198 234.217494,181.715604 C243.128777,180.95242 250.306526,181.719538 250.306526,181.719538 L245.506476,171.581783 L261.324972,171.547689 L261.324972,171.547689 Z" id="Shape" fill="#E1E4E6"></path>
                                </g>
                                <g id="Nose" transform="translate(108.217391, 215.226244)" fill="#333333">
                                    <path d="M46.7016642,11.3173656 C46.7016642,17.8286864 44.5570727,27.3960204 23.3508321,27.3960204 C2.68369424,27.3960204 0,17.8280308 0,11.3173656 C0,4.79817692 3.75533333,-0.479854751 23.3508321,-0.479854751 C44.0186266,-0.479854751 46.7016642,4.79817692 46.7016642,11.3173656" id="Shape"></path>
                                </g>
                                <g id="Left-Eye" transform="translate(74.043478, 149.660633)">
                                    <path d="M27.85848,19.0836835 C27.85848,8.47090588 21.718881,-0.136154118 14.159477,-0.136154118 C6.59058806,-0.136154118 0.453907474,8.47090588 0.453907474,19.0836835 C0.453907474,29.6964611 6.59058806,31.878878 14.159477,31.878878 C21.718881,31.8781568 27.85848,29.6964611 27.85848,19.0836835" id="Shape" fill="#0079BF"></path>
                                    <path d="M23.0773995,16.5009885 C23.0773995,11.636348 19.0893962,7.69631376 14.1696914,7.69631376 C9.24998656,7.69631376 5.2561464,11.636348 5.2561464,16.5009885 C5.2561464,21.3677927 9.24998656,25.311433 14.1696914,25.311433 C19.0893962,25.311433 23.0773995,21.3677927 23.0773995,16.5009885" id="Shape" fill="#000000"></path>
                                    <path d="M17.4076641,9.8729609 C17.4076641,13.1876959 15.0087334,15.8684771 12.0582238,15.8684771 C9.10479581,15.8684771 6.71170196,13.1876959 6.71170196,9.8729609 C6.71170196,6.56111077 9.10479581,3.87744475 12.0582238,3.87744475 C15.0087334,3.87744475 17.4076641,6.56038955 17.4076641,9.8729609" id="Shape" fill="#FFFFFF"></path>
                                </g>
                                <g id="Right-Eye" transform="translate(160.902174, 149.660633)">
                                    <path d="M27.85848,19.0836835 C27.85848,8.47090588 21.718881,-0.136154118 14.159477,-0.136154118 C6.59058806,-0.136154118 0.453907474,8.47090588 0.453907474,19.0836835 C0.453907474,29.6964611 6.59058806,31.878878 14.159477,31.878878 C21.718881,31.8781568 27.85848,29.6964611 27.85848,19.0836835" id="Shape" fill="#0079BF"></path>
                                    <path d="M23.0773995,16.5009885 C23.0773995,11.636348 19.0893962,7.69631376 14.1696914,7.69631376 C9.24998656,7.69631376 5.2561464,11.636348 5.2561464,16.5009885 C5.2561464,21.3677927 9.24998656,25.311433 14.1696914,25.311433 C19.0893962,25.311433 23.0773995,21.3677927 23.0773995,16.5009885" id="Shape" fill="#000000"></path>
                                    <path d="M17.4076641,9.8729609 C17.4076641,13.1876959 15.0087334,15.8684771 12.0582238,15.8684771 C9.10479581,15.8684771 6.71170196,13.1876959 6.71170196,9.8729609 C6.71170196,6.56111077 9.10479581,3.87744475 12.0582238,3.87744475 C15.0087334,3.87744475 17.4076641,6.56038955 17.4076641,9.8729609" id="Shape" fill="#FFFFFF"></path>
                                </g>
                                <g id="Mouth" transform="translate(85.434783, 226.628959)">
                                    <path d="M5.49629007,10.909348 C5.49629007,10.909348 10.9877838,63.0451548 44.283453,66.7325647 C87.181849,71.4801706 91.0415883,10.2484466 91.0415883,10.2484466 C91.0415883,10.2484466 75.2014229,37.5021041 47.550245,35.5095652 C19.9010369,33.5144036 5.49629007,10.909348 5.49629007,10.909348" id="Shape" fill="#333333"></path>
                                    <path d="M18.6488214,25.9363303 L17.5193978,59.6121394 C18.1478039,73.8470891 31.1644104,88.0866285 47.1700495,88.0866285 C63.1776585,88.0866285 76.1922951,73.8470891 76.8200445,59.6121394 L78.0689768,25.2354339 C70.9391623,28.6153412 58.9771222,30.7613036 47.4668515,30.7613036 C36.7583402,30.7613036 28.1563352,28.913009 18.6488214,25.9363303" id="Shape" fill="#FFD2D5"></path>
                                    <path d="M39.2456986,79.3860719 C22.2419643,74.0509982 25.4220795,41.0492036 27.3092675,28.3419326 C24.4522199,27.6554606 21.5925457,26.8581828 18.6488214,25.9409199 L17.5193978,59.6082054 C18.1478039,73.8477448 31.1644104,88.0872842 47.1700495,88.0872842 C56.7668665,88.0872842 65.2624956,82.9580864 70.6843853,75.7852086 C64.1645908,80.295467 53.8356184,83.9664855 39.2456986,79.3860719" id="Shape" fill="#E8AFB4"></path>
                                    <path d="M47.4668515,30.7613036 C36.7576836,30.7613036 28.1563352,28.913009 18.6481648,25.936986 L18.1917988,39.5241475 C22.9366911,43.0633792 31.8243352,50.3332941 46.2120094,53.6784516 C43.3871372,41.3875222 39.4472876,33.5026018 39.4472876,33.5026018 L54.8796785,33.5026018 C54.8796785,33.5026018 56.8725858,41.6799448 54.8711422,52.4812235 C65.8836785,50.0625081 73.0095532,44.773986 77.5502299,39.5457842 L78.0689768,25.2354339 C70.9391623,28.6153412 58.9771222,30.7613036 47.4668515,30.7613036" id="Shape" fill="#E8AFB4"></path>
                                    <path d="M46.2120094,53.6777959 C47.2692024,58.2687 48.1720846,63.4555955 48.6560294,69.0994833 C52.0731923,63.3572471 53.9209818,57.6215674 54.8757387,52.4799122 C52.2820044,53.0477104 49.4801146,53.4614294 46.4378941,53.6686167 C46.3590971,53.6777959 46.2934329,53.673862 46.2120094,53.6777959" id="Shape" fill="#E8AFB4"></path>
                                    <path d="M54.8803352,33.5019462 L39.4479442,33.5019462 C39.4479442,33.5019462 43.3877938,41.3868665 46.212666,53.6777959 C46.2940896,53.673862 46.3597537,53.6777959 46.4385507,53.6692724 C49.4807713,53.4620851 52.2820044,53.0483661 54.8724555,52.4805679 C56.8732425,41.6786335 54.8803352,33.5019462 54.8803352,33.5019462" id="Shape" fill="#D1868F"></path>
                                    <path d="M95.2335883,2.05602353 C92.2603151,15.7015385 78.0689768,33.5019462 47.550245,35.5089095 C17.7019442,37.4712882 -0.538246268,12.3117964 -0.538246268,-0.316795928 C-0.538246268,-0.316795928 12.5079091,30.7901525 47.4675081,30.760648 C82.4297337,30.735733 95.2335883,2.05602353 95.2335883,2.05602353" id="Shape" fill="#333333"></path>
                                </g>
                                <g id="Left-Ear" transform="translate(18.510870, 0.000000)">
                                    <path d="M98.0417019,82.7260982 C75.8058472,27.8194887 39.8698222,-0.645165611 33.0558522,0.01180181 C26.2392557,0.671391855 9.89413294,35.8178376 1.7635966,77.8467054 C-5.19943097,113.860584 4.80581715,151.430335 4.80581715,151.430335" id="Shape" fill="#576D7A"></path>
                                    <path d="M66.3639976,76.6252181 C70.8619926,62.7567801 45.830158,11.155333 35.1019475,9.08477104 C27.8926793,7.69871403 17.3732808,36.4879181 8.9859976,75.70271 C0.590834695,114.916846 9.05034848,137.616316 9.05034848,137.616316 C9.05034848,137.616316 12.8588698,109.38901 33.8208397,95.2766674 C54.7867495,81.163014 61.8692858,90.4890665 66.3639976,76.6252181" id="Shape" fill="#BEC7CC"></path>
                                    <path d="M63.1878222,72.6821023 C63.024975,80.0084036 44.1110703,79.6845095 28.2387294,91.0122801 C32.7242482,76.3977054 43.045341,74.3028842 43.045341,74.3028842 C43.045341,74.3028842 30.599356,68.8792968 25.700153,61.9870398 C30.5652106,60.1748063 42.1601881,63.632081 42.1601881,63.632081 C42.1601881,63.632081 32.9297771,57.6249597 31.3203485,41.7679167 C40.4483234,42.9061357 44.0552557,53.2399317 44.0552557,53.2399317 C44.0552557,53.2399317 36.9911054,36.640686 44.3612507,27.1966154 C47.3568497,31.3338054 63.446539,60.8101371 63.1878222,72.6821023" id="Shape" fill="#D5DBDE"></path>
                                </g>
                                <g id="Right-Ear" transform="translate(148.086957, 0.000000)">
                                    <path d="M0.451940721,82.7260982 C22.6917352,27.8194887 58.6238204,-0.645165611 65.4397603,0.01180181 C72.2517603,0.671391855 88.6001663,35.8178376 96.7267628,77.8467054 C103.696357,113.860584 93.6845422,151.430335 93.6845422,151.430335" id="Shape" fill="#81929C"></path>
                                    <path d="M32.1289883,76.6252181 C27.6309934,62.7567801 52.6628279,11.155333 63.3910385,9.08477104 C70.6042465,7.69871403 81.1177352,36.4879181 89.5135548,75.70271 C97.9028079,114.916846 88.188452,130.528674 88.188452,130.528674 C88.188452,130.528674 85.6367427,109.38901 64.670833,95.2766674 C43.7134595,81.163014 36.6296099,90.4890665 32.1289883,76.6252181" id="Shape" fill="#D5DBDE"></path>
                                    <path d="M35.3097603,72.6821023 C35.4686675,80.0084036 54.3845422,79.6845095 70.2522866,91.0122801 C65.7687377,76.3977054 55.4483016,74.3028842 55.4483016,74.3028842 C55.4483016,74.3028842 67.8982264,68.8792968 72.790863,61.9870398 C67.9277753,60.1748063 56.3347678,63.632081 56.3347678,63.632081 C56.3347678,63.632081 65.5651788,57.6249597 67.1693543,41.7679167 C58.0459758,42.9061357 54.44167,53.2399317 54.44167,53.2399317 C54.44167,53.2399317 61.5058204,36.640686 54.1291086,27.1966154 C51.1348229,31.3338054 35.0503868,60.8101371 35.3097603,72.6821023" id="Shape" fill="#F0F2F3"></path>
                                </g>
                            </g>
                        </g>
                    </g>
                </g>
            </g>
        </g>
    </g>
</svg>